# Blender v2.79 (sub 0) OBJ File: ''
# www.blender.org
mtllib singleFlowerModel.mtl
o Plane.001_Plane.004
v -0.492734 0.003610 0.450491
v 0.372937 0.003610 -0.380539
v 0.372938 1.203609 -0.380539
v 0.355618 0.003610 0.467812
v -0.475414 0.003610 -0.397861
v -0.475413 1.203609 -0.397861
v -0.492734 1.203609 0.450491
v 0.355618 1.203609 0.467811
vt 0.000100 0.000100
vt 0.999900 0.000100
vt 0.999900 0.999900
vt 0.000100 0.000100
vt 0.999900 0.000100
vt 0.999900 0.999900
vt 0.000100 0.999900
vt 0.000100 0.999900
vn 0.6925 -0.0000 0.7214
vn 0.7214 -0.0000 -0.6925
usemtl None
s 1
f 1/1/1 2/2/1 3/3/1
f 4/4/2 5/5/2 6/6/2
f 7/7/1 1/1/1 3/3/1
f 8/8/2 4/4/2 6/6/2
